<svg xmlns="http://www.w3.org/2000/svg" xmlns:xlink="http://www.w3.org/1999/xlink" width="2458" zoomAndPan="magnify" viewBox="0 0 1843.5 383.999986" height="512" preserveAspectRatio="xMidYMid meet" version="1.0"><defs><g/><clipPath id="074ffcc5f0"><path d="M 0 0.0507812 L 1843 0.0507812 L 1843 383.945312 L 0 383.945312 Z M 0 0.0507812 " clip-rule="nonzero"/></clipPath><clipPath id="fbb63765f1"><path d="M 362 40.386719 L 689.933594 40.386719 L 689.933594 125 L 362 125 Z M 362 40.386719 " clip-rule="nonzero"/></clipPath></defs><g clip-path="url(#074ffcc5f0)"><path fill="#ffffff" d="M 0 0.0507812 L 1843 0.0507812 L 1843 383.949219 L 0 383.949219 Z M 0 0.0507812 " fill-opacity="1" fill-rule="nonzero"/><path fill="#000000" d="M 0 0.0507812 L 1843 0.0507812 L 1843 383.949219 L 0 383.949219 Z M 0 0.0507812 " fill-opacity="1" fill-rule="nonzero"/></g><g clip-path="url(#fbb63765f1)"><path fill="#3570ff" d="M 424.730469 40.386719 L 690.023438 40.386719 L 628.121094 124.136719 L 362.828125 124.136719 Z M 424.730469 40.386719 " fill-opacity="1" fill-rule="evenodd"/></g><path fill="#ffffff" d="M 362.828125 124.136719 L 495.476562 124.136719 L 428.351562 214.566406 L 370.066406 134.15625 Z M 362.828125 124.136719 " fill-opacity="1" fill-rule="evenodd"/><path fill="#3570ff" d="M 575.332031 343.601562 L 310.042969 343.601562 L 372.078125 259.847656 L 637.367188 259.847656 Z M 575.332031 343.601562 " fill-opacity="1" fill-rule="evenodd"/><path fill="#ffffff" d="M 637.367188 259.847656 L 504.722656 259.847656 L 571.714844 169.417969 L 630.128906 249.832031 Z M 637.367188 259.847656 " fill-opacity="1" fill-rule="evenodd"/><g fill="#ffffff" fill-opacity="1"><g transform="translate(727.94045, 261.146887)"><g><path d="M 3.671875 -17.25 C 15.234375 -5.6875 32.109375 2.203125 55.59375 2.203125 C 88.609375 2.203125 104.578125 -14.671875 104.578125 -37.0625 C 104.578125 -64.21875 78.890625 -70.265625 58.703125 -74.859375 C 44.578125 -78.15625 34.3125 -80.71875 34.3125 -88.984375 C 34.3125 -96.328125 40.546875 -101.453125 52.28125 -101.453125 C 64.21875 -101.453125 77.421875 -97.234375 87.328125 -88.0625 L 101.828125 -107.140625 C 89.71875 -118.34375 73.578125 -124.203125 54.125 -124.203125 C 25.3125 -124.203125 7.703125 -107.703125 7.703125 -87.328125 C 7.703125 -60 33.390625 -54.484375 53.390625 -49.90625 C 67.515625 -46.59375 78.15625 -43.484375 78.15625 -34.3125 C 78.15625 -27.34375 71.1875 -20.546875 56.875 -20.546875 C 40 -20.546875 26.609375 -28.078125 17.984375 -37.0625 Z M 3.671875 -17.25 "/></g></g></g><g fill="#ffffff" fill-opacity="1"><g transform="translate(838.026064, 261.146887)"><g><path d="M 72.28125 0 L 72.28125 -50.09375 L 119.078125 -122.375 L 89.34375 -122.375 L 59.265625 -73.203125 L 28.796875 -122.375 L -0.921875 -122.375 L 46.234375 -50.09375 L 46.234375 0 Z M 72.28125 0 "/></g></g></g><g fill="#ffffff" fill-opacity="1"><g transform="translate(956.368097, 261.146887)"><g><path d="M 121.640625 0 L 121.640625 -122.375 L 95.59375 -122.375 L 95.59375 -43.109375 L 38.890625 -122.375 L 12.109375 -122.375 L 12.109375 0 L 38.15625 0 L 38.15625 -82.1875 L 96.5 0 Z M 121.640625 0 "/></g></g></g><g fill="#ffffff" fill-opacity="1"><g transform="translate(1090.122111, 261.146887)"><g><path d="M 70.453125 2.203125 C 98.34375 2.203125 113.75 -12.65625 122.5625 -27.890625 L 100.171875 -38.71875 C 95.03125 -28.625 84.03125 -20.921875 70.453125 -20.921875 C 49.171875 -20.921875 33.03125 -37.984375 33.03125 -61.09375 C 33.03125 -84.21875 49.171875 -101.28125 70.453125 -101.28125 C 84.03125 -101.28125 95.03125 -93.390625 100.171875 -83.484375 L 122.5625 -94.484375 C 113.9375 -109.71875 98.34375 -124.390625 70.453125 -124.390625 C 34.671875 -124.390625 6.234375 -98.703125 6.234375 -61.09375 C 6.234375 -23.484375 34.671875 2.203125 70.453125 2.203125 Z M 70.453125 2.203125 "/></g></g></g><g fill="#ffffff" fill-opacity="1"><g transform="translate(1216.17011, 261.146887)"><g><path d="M 79.078125 0 L 126.21875 -122.375 L 96.5 -122.375 L 62.75 -28.25 L 28.796875 -122.375 L -0.921875 -122.375 L 46.421875 0 Z M 79.078125 0 "/></g></g></g><g fill="#ffffff" fill-opacity="1"><g transform="translate(1341.667705, 261.146887)"><g><path d="M 38.15625 0 L 38.15625 -122.375 L 12.109375 -122.375 L 12.109375 0 Z M 38.15625 0 "/></g></g></g><g fill="#ffffff" fill-opacity="1"><g transform="translate(1391.94014, 261.146887)"><g><path d="M 6.234375 -61.09375 C 6.234375 -24.21875 33.203125 2.203125 70.078125 2.203125 C 107.140625 2.203125 134.109375 -24.21875 134.109375 -61.09375 C 134.109375 -97.96875 107.140625 -124.390625 70.078125 -124.390625 C 33.203125 -124.390625 6.234375 -97.96875 6.234375 -61.09375 Z M 107.328125 -61.09375 C 107.328125 -38.34375 92.65625 -20.921875 70.078125 -20.921875 C 47.515625 -20.921875 33.03125 -38.34375 33.03125 -61.09375 C 33.03125 -84.03125 47.515625 -101.28125 70.078125 -101.28125 C 92.65625 -101.28125 107.328125 -84.03125 107.328125 -61.09375 Z M 107.328125 -61.09375 "/></g></g></g></svg>