<svg xmlns="http://www.w3.org/2000/svg" xmlns:xlink="http://www.w3.org/1999/xlink" width="512" zoomAndPan="magnify" viewBox="0 0 384 383.999986" height="512" preserveAspectRatio="xMidYMid meet" version="1.0"><defs><clipPath id="2467ce2f20"><path d="M 75 0 L 309 0 C 350.421875 0 384 33.578125 384 75 L 384 309 C 384 350.421875 350.421875 384 309 384 L 75 384 C 33.578125 384 0 350.421875 0 309 L 0 75 C 0 33.578125 33.578125 0 75 0 Z M 75 0 " clip-rule="nonzero"/></clipPath><clipPath id="a9480deb27"><path d="M 84 72.761719 L 341.734375 72.761719 L 341.734375 139 L 84 139 Z M 84 72.761719 " clip-rule="nonzero"/></clipPath><clipPath id="b6fd519348"><path d="M 42.484375 245 L 301 245 L 301 311.261719 L 42.484375 311.261719 Z M 42.484375 245 " clip-rule="nonzero"/></clipPath></defs><rect x="-38.4" width="460.8" fill="#ffffff" y="-38.399999" height="460.799983" fill-opacity="1"/><rect x="-38.4" width="460.8" fill="#596c80" y="-38.399999" height="460.799983" fill-opacity="1"/><g clip-path="url(#2467ce2f20)"><rect x="-38.4" width="460.8" fill="#ffffff" y="-38.399999" height="460.799983" fill-opacity="1"/></g><g clip-path="url(#a9480deb27)"><path fill="#3570ff" d="M 132.789062 72.761719 L 341.429688 72.761719 L 292.746094 138.628906 L 84.105469 138.628906 Z M 132.789062 72.761719 " fill-opacity="1" fill-rule="evenodd"/></g><path fill="#102437" d="M 84.105469 138.628906 L 188.425781 138.628906 L 135.636719 209.75 L 89.796875 146.507812 Z M 84.105469 138.628906 " fill-opacity="1" fill-rule="evenodd"/><g clip-path="url(#b6fd519348)"><path fill="#3570ff" d="M 251.230469 311.226562 L 42.589844 311.226562 L 91.378906 245.359375 L 300.019531 245.359375 Z M 251.230469 311.226562 " fill-opacity="1" fill-rule="evenodd"/></g><path fill="#102437" d="M 300.019531 245.359375 L 195.699219 245.359375 L 248.382812 174.242188 L 294.328125 237.480469 Z M 300.019531 245.359375 " fill-opacity="1" fill-rule="evenodd"/></svg>