<svg xmlns="http://www.w3.org/2000/svg" xmlns:xlink="http://www.w3.org/1999/xlink" width="2458" zoomAndPan="magnify" viewBox="0 0 1843.5 383.999986" height="512" preserveAspectRatio="xMidYMid meet" version="1.0"><defs><g/><clipPath id="335b73c8d1"><path d="M 0 0.0507812 L 1843 0.0507812 L 1843 383.945312 L 0 383.945312 Z M 0 0.0507812 " clip-rule="nonzero"/></clipPath><clipPath id="9dcfc4fb4b"><path d="M 363 40.558594 L 690.199219 40.558594 L 690.199219 125 L 363 125 Z M 363 40.558594 " clip-rule="nonzero"/></clipPath><clipPath id="498f19e898"><path d="M 310.613281 259 L 638 259 L 638 344 L 310.613281 344 Z M 310.613281 259 " clip-rule="nonzero"/></clipPath></defs><g clip-path="url(#335b73c8d1)"><path fill="#ffffff" d="M 0 0.0507812 L 1843 0.0507812 L 1843 383.949219 L 0 383.949219 Z M 0 0.0507812 " fill-opacity="1" fill-rule="nonzero"/><path fill="#ffffff" d="M 0 0.0507812 L 1843 0.0507812 L 1843 383.949219 L 0 383.949219 Z M 0 0.0507812 " fill-opacity="1" fill-rule="nonzero"/></g><g clip-path="url(#9dcfc4fb4b)"><path fill="#3570ff" d="M 425.300781 40.558594 L 690.285156 40.558594 L 628.457031 124.214844 L 363.46875 124.214844 Z M 425.300781 40.558594 " fill-opacity="1" fill-rule="evenodd"/></g><path fill="#102437" d="M 363.46875 124.214844 L 495.964844 124.214844 L 428.914062 214.542969 L 370.699219 134.222656 Z M 363.46875 124.214844 " fill-opacity="1" fill-rule="evenodd"/><g clip-path="url(#498f19e898)"><path fill="#3570ff" d="M 575.726562 343.425781 L 310.742188 343.425781 L 372.707031 259.769531 L 637.691406 259.769531 Z M 575.726562 343.425781 " fill-opacity="1" fill-rule="evenodd"/></g><path fill="#102437" d="M 637.691406 259.769531 L 505.199219 259.769531 L 572.113281 169.445312 L 630.464844 249.765625 Z M 637.691406 259.769531 " fill-opacity="1" fill-rule="evenodd"/><g fill="#102437" fill-opacity="1"><g transform="translate(728.161642, 261.06784)"><g><path d="M 3.671875 -17.234375 C 15.21875 -5.6875 32.078125 2.203125 55.53125 2.203125 C 88.515625 2.203125 104.46875 -14.65625 104.46875 -37.015625 C 104.46875 -64.140625 78.796875 -70.1875 58.640625 -74.765625 C 44.53125 -78.078125 34.265625 -80.640625 34.265625 -88.890625 C 34.265625 -96.21875 40.5 -101.34375 52.234375 -101.34375 C 64.140625 -101.34375 77.34375 -97.125 87.234375 -87.96875 L 101.71875 -107.03125 C 89.609375 -118.203125 73.484375 -124.078125 54.0625 -124.078125 C 25.296875 -124.078125 7.703125 -107.578125 7.703125 -87.234375 C 7.703125 -59.921875 33.359375 -54.4375 53.328125 -49.84375 C 67.4375 -46.546875 78.078125 -43.4375 78.078125 -34.265625 C 78.078125 -27.3125 71.109375 -20.53125 56.8125 -20.53125 C 39.953125 -20.53125 26.578125 -28.046875 17.953125 -37.015625 Z M 3.671875 -17.234375 "/></g></g></g><g fill="#102437" fill-opacity="1"><g transform="translate(838.121428, 261.06784)"><g><path d="M 72.203125 0 L 72.203125 -50.03125 L 118.9375 -122.234375 L 89.25 -122.234375 L 59.1875 -73.125 L 28.765625 -122.234375 L -0.921875 -122.234375 L 46.1875 -50.03125 L 46.1875 0 Z M 72.203125 0 "/></g></g></g><g fill="#102437" fill-opacity="1"><g transform="translate(956.328196, 261.06784)"><g><path d="M 121.5 0 L 121.5 -122.234375 L 95.484375 -122.234375 L 95.484375 -43.0625 L 38.859375 -122.234375 L 12.09375 -122.234375 L 12.09375 0 L 38.125 0 L 38.125 -82.109375 L 96.390625 0 Z M 121.5 0 "/></g></g></g><g fill="#102437" fill-opacity="1"><g transform="translate(1089.929329, 261.06784)"><g><path d="M 70.375 2.203125 C 98.234375 2.203125 113.625 -12.640625 122.421875 -27.859375 L 100.0625 -38.671875 C 94.9375 -28.59375 83.9375 -20.890625 70.375 -20.890625 C 49.109375 -20.890625 32.984375 -37.9375 32.984375 -61.03125 C 32.984375 -84.125 49.109375 -101.15625 70.375 -101.15625 C 83.9375 -101.15625 94.9375 -93.28125 100.0625 -83.390625 L 122.421875 -94.375 C 113.8125 -109.59375 98.234375 -124.25 70.375 -124.25 C 34.640625 -124.25 6.234375 -98.59375 6.234375 -61.03125 C 6.234375 -23.453125 34.640625 2.203125 70.375 2.203125 Z M 70.375 2.203125 "/></g></g></g><g fill="#102437" fill-opacity="1"><g transform="translate(1215.833255, 261.06784)"><g><path d="M 78.984375 0 L 126.09375 -122.234375 L 96.390625 -122.234375 L 62.671875 -28.21875 L 28.765625 -122.234375 L -0.921875 -122.234375 L 46.359375 0 Z M 78.984375 0 "/></g></g></g><g fill="#102437" fill-opacity="1"><g transform="translate(1341.187406, 261.06784)"><g><path d="M 38.125 0 L 38.125 -122.234375 L 12.09375 -122.234375 L 12.09375 0 Z M 38.125 0 "/></g></g></g><g fill="#102437" fill-opacity="1"><g transform="translate(1391.40238, 261.06784)"><g><path d="M 6.234375 -61.03125 C 6.234375 -24.1875 33.171875 2.203125 70 2.203125 C 107.03125 2.203125 133.96875 -24.1875 133.96875 -61.03125 C 133.96875 -97.859375 107.03125 -124.25 70 -124.25 C 33.171875 -124.25 6.234375 -97.859375 6.234375 -61.03125 Z M 107.203125 -61.03125 C 107.203125 -38.296875 92.546875 -20.890625 70 -20.890625 C 47.46875 -20.890625 32.984375 -38.296875 32.984375 -61.03125 C 32.984375 -83.9375 47.46875 -101.15625 70 -101.15625 C 92.546875 -101.15625 107.203125 -83.9375 107.203125 -61.03125 Z M 107.203125 -61.03125 "/></g></g></g></svg>